<?xml version="1.0" encoding="UTF-8"?>
<!DOCTYPE svg PUBLIC "-//W3C//DTD SVG 1.1//EN" "http://www.w3.org/Graphics/SVG/1.1/DTD/svg11.dtd">
<!-- Creator: CorelDRAW 2021.5 -->
<svg xmlns="http://www.w3.org/2000/svg" xml:space="preserve" width="3112px" height="617px" version="1.1" style="shape-rendering:geometricPrecision; text-rendering:geometricPrecision; image-rendering:optimizeQuality; fill-rule:evenodd; clip-rule:evenodd"
viewBox="0 0 950 188.33"
 xmlns:xlink="http://www.w3.org/1999/xlink"
 xmlns:xodm="http://www.corel.com/coreldraw/odm/2003">
 <defs>
  <style type="text/css">
   <![CDATA[
    .fil1 {fill:#333333;fill-rule:nonzero}
    .fil0 {fill:url(#id0)}
    .fil2 {fill:url(#id1)}
   ]]>
  </style>
  <linearGradient id="id0" gradientUnits="userSpaceOnUse" x1="103.3" y1="114.97" x2="103.3" y2="-108.61">
   <stop offset="0" style="stop-opacity:1; stop-color:#FF6600"/>
   <stop offset="1" style="stop-opacity:1; stop-color:yellow"/>
  </linearGradient>
  <linearGradient id="id1" gradientUnits="userSpaceOnUse" xlink:href="#id0" x1="282.99" y1="236.73" x2="1558.05" y2="-104.44">
  </linearGradient>
 </defs>
 <g id="Layer_x0020_1">
  <metadata id="CorelCorpID_0Corel-Layer"/>
  <g id="_1715223274720">
   <path class="fil0" d="M134.11 188.33l-24.36 -42.18 -46.88 0 0 42.18 -62.87 0 0 -104.78 153.67 0.27c4.3,0 8.38,-0.85 12.23,-2.55 3.85,-1.7 7.21,-3.94 10.07,-6.72 2.87,-2.77 5.11,-6.09 6.72,-9.94 1.61,-3.85 2.42,-7.92 2.42,-12.22 0,-4.3 -0.81,-8.37 -2.42,-12.23 -1.61,-3.85 -3.85,-7.2 -6.72,-10.07 -2.86,-2.87 -6.22,-5.1 -10.07,-6.72 -3.85,-1.61 -7.93,-2.41 -12.23,-2.41l-132.72 0 0 20.95 132.72 0c2.87,0.18 5.24,1.26 7.12,3.23 1.88,1.97 2.82,4.38 2.82,7.25 0,2.86 -0.94,5.28 -2.82,7.25 -1.88,1.97 -4.25,3.05 -7.12,3.23l-0.27 0 -0.26 0 -153.14 0 0 -62.87 153.67 0c7.17,0 13.97,1.39 20.42,4.16 6.45,2.78 12,6.5 16.66,11.15 4.66,4.66 8.37,10.21 11.15,16.66 2.77,6.45 4.16,13.26 4.16,20.42 0,7.16 -1.39,13.93 -4.16,20.28 -2.78,6.36 -6.49,11.91 -11.15,16.66 -4.66,4.75 -10.21,8.51 -16.66,11.28 -6.45,2.78 -13.25,4.17 -20.42,4.17l-132.72 -0.27 0 62.87 20.96 0 0 -42.18 79.79 0c2.15,3.94 4.57,8.19 7.26,12.76 2.68,4.57 5.24,8.95 7.65,13.16 2.42,4.21 4.53,7.79 6.32,10.75 1.79,2.95 2.86,4.79 3.22,5.51l24.18 0c-0.54,-0.72 -1.66,-2.51 -3.36,-5.38 -1.7,-2.86 -3.67,-6.31 -5.91,-10.34 -2.24,-4.03 -4.7,-8.37 -7.39,-13.03 -2.68,-4.66 -5.28,-9.13 -7.79,-13.43l24.18 0c4.48,7.7 8.87,15.31 13.17,22.83 4.29,7.53 8.23,14.24 11.82,20.15l11.55 20.15 -72.49 0z"/>
   <g>
    <path class="fil1" d="M297.95 126.44l-20.32 -36.88 -5.71 0 0 36.88 -23.8 0 0 -97.7 39.95 0c7.7,0 14.26,1.35 19.69,4.04 5.43,2.69 9.49,6.38 12.18,11.06 2.69,4.69 4.03,9.91 4.03,15.66 0,6.49 -1.83,12.29 -5.5,17.4 -3.66,5.1 -9.06,8.72 -16.21,10.85l22.55 38.69 -26.86 0zm-26.03 -53.72l14.75 0c4.36,0 7.63,-1.07 9.81,-3.2 2.18,-2.13 3.28,-5.15 3.28,-9.05 0,-3.71 -1.1,-6.63 -3.28,-8.77 -2.18,-2.13 -5.45,-3.2 -9.81,-3.2l-14.75 0 0 24.22zm113.15 54.7c-9.18,0 -17.6,-2.14 -25.26,-6.4 -7.65,-4.27 -13.73,-10.23 -18.23,-17.89 -4.5,-7.65 -6.75,-16.26 -6.75,-25.82 0,-9.55 2.25,-18.14 6.75,-25.74 4.5,-7.61 10.58,-13.55 18.23,-17.82 7.66,-4.27 16.08,-6.4 25.26,-6.4 9.19,0 17.61,2.13 25.26,6.4 7.66,4.27 13.69,10.21 18.1,17.82 4.4,7.6 6.61,16.19 6.61,25.74 0,9.56 -2.23,18.17 -6.68,25.82 -4.46,7.66 -10.49,13.62 -18.1,17.89 -7.61,4.26 -16,6.4 -25.19,6.4zm0 -21.71c7.8,0 14.04,-2.6 18.72,-7.8 4.69,-5.19 7.03,-12.06 7.03,-20.6 0,-8.63 -2.34,-15.51 -7.03,-20.66 -4.68,-5.15 -10.92,-7.73 -18.72,-7.73 -7.89,0 -14.17,2.55 -18.86,7.66 -4.68,5.1 -7.03,12.01 -7.03,20.73 0,8.63 2.35,15.52 7.03,20.67 4.69,5.15 10.97,7.73 18.86,7.73zm109.4 21.71c-9.19,0 -17.61,-2.14 -25.26,-6.4 -7.66,-4.27 -13.74,-10.23 -18.24,-17.89 -4.5,-7.65 -6.75,-16.26 -6.75,-25.82 0,-9.55 2.25,-18.14 6.75,-25.74 4.5,-7.61 10.58,-13.55 18.24,-17.82 7.65,-4.27 16.07,-6.4 25.26,-6.4 9.18,0 17.6,2.13 25.26,6.4 7.65,4.27 13.68,10.21 18.09,17.82 4.41,7.6 6.61,16.19 6.61,25.74 0,9.56 -2.22,18.17 -6.68,25.82 -4.45,7.66 -10.48,13.62 -18.09,17.89 -7.61,4.26 -16.01,6.4 -25.19,6.4zm0 -21.71c7.79,0 14.03,-2.6 18.72,-7.8 4.68,-5.19 7.02,-12.06 7.02,-20.6 0,-8.63 -2.34,-15.51 -7.02,-20.66 -4.69,-5.15 -10.93,-7.73 -18.72,-7.73 -7.89,0 -14.18,2.55 -18.86,7.66 -4.69,5.1 -7.03,12.01 -7.03,20.73 0,8.63 2.34,15.52 7.03,20.67 4.68,5.15 10.97,7.73 18.86,7.73zm126.79 -76.97l0 19.07 -39.81 0 0 20.6 29.79 0 0 18.51 -29.79 0 0 39.52 -23.8 0 0 -97.7 63.61 0zm36.33 19.07l0 19.76 31.87 0 0 18.37 -31.87 0 0 21.44 36.04 0 0 19.06 -59.84 0 0 -97.7 59.84 0 0 19.07 -36.04 0zm101.32 78.63l-20.32 -36.88 -5.71 0 0 36.88 -23.8 0 0 -97.7 39.95 0c7.7,0 14.26,1.35 19.69,4.04 5.43,2.69 9.49,6.38 12.18,11.06 2.69,4.69 4.03,9.91 4.03,15.66 0,6.49 -1.83,12.29 -5.49,17.4 -3.67,5.1 -9.07,8.72 -16.22,10.85l22.55 38.69 -26.86 0zm-26.03 -53.72l14.75 0c4.36,0 7.64,-1.07 9.81,-3.2 2.19,-2.13 3.28,-5.15 3.28,-9.05 0,-3.71 -1.09,-6.63 -3.28,-8.77 -2.17,-2.13 -5.45,-3.2 -9.81,-3.2l-14.75 0 0 24.22zm90.74 35.35l31.18 0 0 18.37 -54.97 0 0 -97.7 23.79 0 0 79.33zm126.38 -79.33l-33.82 65.41 0 32.29 -23.8 0 0 -32.29 -33.82 -65.41 27 0 18.93 40.92 18.79 -40.92 26.72 0z"/>
    <path class="fil2" d="M248.12 174.41l2.64 0 0 -9.09 6.68 0 6.78 9.09 3.24 0 -7.18 -9.56c3.67,-0.63 6.35,-2.94 6.35,-6.81l0 -0.07c0,-1.87 -0.64,-3.44 -1.81,-4.61 -1.47,-1.47 -3.74,-2.34 -6.64,-2.34l-10.06 0 0 23.39zm2.64 -11.46l0 -9.49 7.21 0c3.78,0 5.98,1.7 5.98,4.61l0 0.07c0,3 -2.54,4.81 -6.01,4.81l-7.18 0zm47.46 11.86c7.12,0 11.96,-5.65 11.96,-12.1l0 -0.06c0,-6.45 -4.78,-12.03 -11.89,-12.03 -7.12,0 -11.96,5.65 -11.96,12.09l0 0.07c0,6.45 4.78,12.03 11.89,12.03zm0.07 -2.44c-5.35,0 -9.22,-4.34 -9.22,-9.66l0 -0.06c0,-5.31 3.81,-9.59 9.15,-9.59 5.35,0 9.22,4.34 9.22,9.65l0 0.07c0,5.31 -3.81,9.59 -9.15,9.59zm43.42 2.44c7.11,0 11.96,-5.65 11.96,-12.1l0 -0.06c0,-6.45 -4.78,-12.03 -11.89,-12.03 -7.12,0 -11.96,5.65 -11.96,12.09l0 0.07c0,6.45 4.77,12.03 11.89,12.03zm0.07 -2.44c-5.35,0 -9.23,-4.34 -9.23,-9.66l0 -0.06c0,-5.31 3.81,-9.59 9.16,-9.59 5.34,0 9.22,4.34 9.22,9.65l0 0.07c0,5.31 -3.81,9.59 -9.15,9.59zm32.56 2.04l2.64 0 0 -10.19 12.66 0 0 -2.41 -12.66 0 0 -8.35 14.16 0 0 -2.44 -16.8 0 0 23.39zm37.24 0l2.64 0 0 -23.39 -2.64 0 0 23.39zm24.58 0l2.57 0 0 -19.18 15.1 19.18 2.11 0 0 -23.39 -2.58 0 0 18.74 -14.73 -18.74 -2.47 0 0 23.39zm52.34 0.4c3.98,0 7.22,-1.61 9.39,-3.58l0 -9.32 -9.66 0 0 2.37 7.12 0 0 5.82c-1.61,1.3 -4.08,2.34 -6.75,2.34 -5.68,0 -9.25,-4.15 -9.25,-9.73l0 -0.06c0,-5.21 3.71,-9.59 8.88,-9.59 3.28,0 5.35,1.1 7.12,2.67l1.7 -2c-2.34,-1.97 -4.77,-3.11 -8.72,-3.11 -7.01,0 -11.72,5.68 -11.72,12.09l0 0.07c0,6.68 4.54,12.03 11.89,12.03zm50.47 -0.4l2.57 0 0 -18.91 8.52 12.49 0.13 0 8.52 -12.52 0 18.94 2.64 0 0 -23.39 -2.67 0 -8.52 12.76 -8.52 -12.76 -2.67 0 0 23.39zm42.08 0l2.71 0 2.77 -6.18 12.73 0 2.74 6.18 2.84 0 -10.66 -23.55 -2.47 0 -10.66 23.55zm6.52 -8.56l5.34 -11.92 5.31 11.92 -10.65 0zm36.97 8.56l8.12 0c7.35,0 12.43,-5.12 12.43,-11.7l0 -0.06c0,-6.58 -5.08,-11.63 -12.43,-11.63l-8.12 0 0 23.39zm8.12 -20.95c5.91,0 9.69,4.08 9.69,9.25l0 0.07c0,5.21 -3.78,9.19 -9.69,9.19l-5.48 0 0 -18.51 5.48 0zm33.1 20.95l17.07 0 0 -2.41 -14.43 0 0 -8.18 12.76 0 0 -2.41 -12.76 0 0 -7.98 14.26 0 0 -2.41 -16.9 0 0 23.39zm65.53 0.33c4.64,0 7.99,-2.61 7.99,-6.61l0 -0.07c0,-3.58 -2.41,-5.45 -7.62,-6.61 -5.18,-1.07 -6.35,-2.34 -6.35,-4.55l0 -0.07c0,-2.13 1.91,-3.77 4.98,-3.77 2.4,0 4.58,0.77 6.75,2.54l1.53 -2.04c-2.4,-1.9 -4.77,-2.87 -8.21,-2.87 -4.45,0 -7.69,2.74 -7.69,6.38l0 0.06c0,3.85 2.47,5.58 7.85,6.75 4.91,1.07 6.08,2.27 6.08,4.45l0 0.06c0,2.31 -2.04,3.98 -5.21,3.98 -3.24,0 -5.58,-1.07 -8.02,-3.31l-1.63 1.94c2.8,2.54 5.81,3.74 9.55,3.74zm28.69 -0.33l2.64 0 0 -23.39 -2.64 0 0 23.39zm24.58 0l2.57 0 0 -18.91 8.52 12.49 0.13 0 8.52 -12.52 0 18.94 2.64 0 0 -23.39 -2.67 0 -8.52 12.76 -8.52 -12.76 -2.67 0 0 23.39zm44.09 0l2.64 0 0 -8.26 5.68 0c4.97,0 9.18,-2.6 9.18,-7.65l0 -0.06c0,-4.61 -3.47,-7.42 -8.75,-7.42l-8.75 0 0 23.39zm2.64 -10.66l0 -10.29 5.91 0c3.78,0 6.28,1.74 6.28,5.08l0 0.06c0,3.08 -2.54,5.15 -6.41,5.15l-5.78 0zm34.77 10.66l15.8 0 0 -2.44 -13.16 0 0 -20.95 -2.64 0 0 23.39zm35.63 0l17.07 0 0 -2.41 -14.43 0 0 -8.18 12.76 0 0 -2.41 -12.76 0 0 -7.98 14.27 0 0 -2.41 -16.91 0 0 23.39z"/>
   </g>
  </g>
 </g>
</svg>
